<svg version="1.1" id="Layer_1" xmlns="http://www.w3.org/2000/svg" xmlns:xlink="http://www.w3.org/1999/xlink" x="0px" y="0px"
	 width="100%" viewBox="0 0 544 240" enable-background="new 0 0 544 240" xml:space="preserve">
<path fill="#000000" opacity="1.000000" stroke="none" 
	d="
M155.072510,140.812622 
	C156.381500,142.952301 157.519119,144.770325 158.876892,146.940186 
	C159.755310,144.619385 156.959717,143.168213 158.756500,140.467743 
	C162.874725,145.964401 165.778625,151.826447 169.186615,157.566513 
	C167.399658,146.603439 164.734283,135.729340 168.628296,124.526390 
	C171.748413,125.908173 170.952606,127.859589 170.734802,129.565598 
	C169.296875,140.829254 171.575211,151.396683 176.494339,161.524796 
	C177.577789,163.755554 179.429230,165.064148 181.223938,166.548828 
	C182.703339,167.772675 184.861511,168.992722 183.160217,171.392838 
	C181.619614,173.566269 179.432190,173.424896 177.382416,172.161194 
	C172.410934,169.096207 167.578476,165.785522 163.463593,161.627319 
	C157.097336,155.194016 151.509857,148.114944 148.069031,139.657974 
	C146.637146,136.138596 144.469193,135.041931 140.830231,135.106339 
	C127.496559,135.342346 114.111168,135.432709 101.202187,131.430161 
	C76.659798,123.820587 56.014118,109.715988 37.361870,92.424561 
	C35.978886,91.142471 33.949116,89.589828 35.593109,87.365486 
	C37.182449,85.215080 39.565231,85.961021 41.566509,86.778732 
	C51.209076,90.718620 61.363811,92.504654 71.544655,94.305336 
	C76.823952,95.239090 82.042725,94.361031 87.731155,93.781929 
	C85.077866,98.156998 82.385826,98.567039 70.236076,98.364296 
	C63.924206,98.258965 57.758327,97.087410 51.465538,96.839195 
	C68.018105,110.181221 86.789955,109.195206 106.333557,104.058723 
	C104.833916,109.655884 100.794998,110.654510 75.410828,113.209129 
	C83.790901,117.424545 90.949982,124.348961 101.720886,123.031296 
	C107.464012,122.328697 113.367599,122.988640 119.197723,122.930351 
	C124.022224,122.882118 128.848923,122.890480 133.621826,121.864166 
	C135.284424,121.506653 137.212204,120.856102 139.366531,123.145691 
	C130.699463,128.651291 121.317917,126.830391 111.036743,127.514221 
	C122.448792,129.241028 132.620178,129.210510 143.818802,129.275055 
	C141.604782,121.667244 141.439194,114.455704 142.010086,107.278282 
	C140.303619,106.558342 139.349564,107.818779 138.162216,108.214340 
	C136.592209,108.737366 134.973083,109.642570 133.667908,107.792137 
	C132.479660,106.107498 133.571350,104.808586 134.285797,103.243286 
	C144.343643,81.207741 157.741165,61.064087 169.831818,40.181213 
	C170.554779,38.932522 171.527710,37.670017 171.149063,36.030937 
	C169.883972,34.586746 168.311279,35.158218 166.952271,35.523228 
	C157.138626,38.159058 147.408127,40.985935 138.068604,45.138485 
	C128.568085,49.362614 121.998199,56.666809 115.578911,64.440170 
	C97.285080,86.592880 70.024673,93.586266 43.520340,83.072899 
	C39.932346,81.649658 34.728592,80.538437 35.205128,75.729691 
	C35.668392,71.054901 40.936733,72.258392 44.283340,71.551834 
	C57.751705,68.708290 71.117630,65.518677 84.227089,60.867920 
	C61.873238,59.118916 40.805218,53.934788 22.004824,40.204449 
	C26.309654,37.044632 29.528322,38.556541 32.996796,40.506561 
	C57.666111,54.375980 84.058815,56.539978 111.423454,51.767342 
	C115.789330,51.005890 119.518890,48.764942 123.199844,46.467945 
	C143.726242,33.658989 166.684875,28.153177 190.197800,24.791056 
	C230.940521,18.965237 271.986084,20.186764 312.936066,20.996387 
	C345.125702,21.632811 377.044006,25.292051 407.907684,35.321369 
	C413.304810,37.075207 418.572754,39.121422 423.534363,41.908424 
	C440.421265,51.394127 458.820099,53.457996 477.703247,52.539749 
	C492.780670,51.806564 507.496033,49.154736 521.007935,41.906746 
	C524.522583,40.021446 527.954346,37.956280 531.287903,35.766277 
	C534.228210,33.834644 537.037231,33.466721 540.059937,35.436287 
	C532.339233,47.384052 504.148438,56.369461 464.293304,59.446892 
	C481.677063,64.965012 498.472382,69.508095 515.613586,72.750122 
	C516.916992,72.996635 518.264160,73.206696 519.474304,73.712708 
	C522.289246,74.889771 522.851013,76.750160 520.743042,79.139450 
	C519.161499,80.932045 517.122559,82.035934 514.955322,82.962349 
	C488.815918,94.135910 458.709656,88.106812 438.916687,67.666519 
	C433.934357,62.521221 428.931458,57.380096 425.016815,51.316517 
	C424.013641,49.762650 422.765717,48.429893 421.088623,47.552521 
	C409.455719,41.466583 396.846985,38.336575 384.180237,35.393681 
	C383.593140,35.257286 382.917877,35.500614 381.949554,35.602112 
	C383.119171,39.750629 385.680023,42.886299 387.387909,46.428711 
	C392.233856,56.479668 397.030212,66.555183 401.963867,76.562981 
	C405.631989,84.003654 410.833771,90.207947 417.464844,95.243935 
	C419.174530,96.542366 422.339966,97.912231 420.469849,100.566513 
	C418.475494,103.397072 415.879395,101.015770 413.952545,99.680298 
	C406.825165,94.740349 401.411469,88.224983 397.543030,80.506027 
	C390.378754,66.210739 383.242737,51.898144 376.384796,37.455132 
	C374.987030,34.511467 373.291901,33.167271 370.211304,32.608036 
	C357.404480,30.283150 344.464203,29.242033 331.515076,28.224766 
	C311.230377,26.631222 290.871552,26.634459 270.577087,26.717932 
	C242.628143,26.832886 214.631134,27.480770 186.835159,31.240589 
	C182.012894,31.892872 179.315399,33.850746 176.824921,38.474770 
	C169.012299,52.980221 160.233200,66.966957 151.764938,81.116585 
	C148.266724,86.961746 145.098785,92.955383 142.057129,99.927704 
	C148.028412,99.089790 147.335114,102.790588 147.267670,106.188187 
	C147.135605,112.839363 146.059326,119.811417 148.913834,125.926895 
	C151.149002,130.715515 152.550217,135.790649 155.072510,140.812622 
M502.642365,75.901085 
	C480.246918,70.562469 457.673279,65.793617 436.333405,54.034630 
	C445.546722,75.993431 489.846161,89.785515 508.912781,77.475708 
	C506.925659,76.969887 505.170776,76.523193 502.642365,75.901085 
M105.453896,66.970215 
	C107.635292,64.671898 110.334755,62.797497 112.420120,58.741333 
	C89.850304,65.348396 68.866386,73.328651 46.788246,77.454605 
	C68.049423,84.953117 87.434418,81.687645 105.453896,66.970215 
z"/>
<path fill="#000000" opacity="1.000000" stroke="none" 
	d="
M358.600769,86.757957 
	C338.429932,96.628021 318.779907,96.237427 299.412659,85.647636 
	C297.093018,84.379272 295.441803,84.823380 293.505768,86.181038 
	C281.644348,94.498856 269.859985,92.210518 258.395508,85.436111 
	C255.577606,83.771027 253.883362,83.380951 250.970856,85.383141 
	C235.284927,96.166260 203.785706,95.962822 188.464355,85.270226 
	C187.102737,84.319962 185.340363,83.270531 186.203659,81.339264 
	C187.319580,78.842888 189.300232,80.210884 190.904022,80.901779 
	C206.381622,87.569305 222.233307,89.653809 238.655060,84.881058 
	C240.411102,84.370689 242.153198,83.789177 243.855118,83.121742 
	C245.882355,82.326729 248.384094,81.457413 248.431595,79.039970 
	C248.491089,76.011909 246.824112,73.252235 244.813980,71.046722 
	C243.366058,69.458069 241.715179,71.099937 240.299942,71.790382 
	C228.573929,77.511147 216.356445,79.791634 203.423233,77.169823 
	C197.475464,75.964088 192.015320,73.522377 186.816284,70.462051 
	C184.857635,69.309135 182.836166,67.686554 184.180786,65.311501 
	C185.862732,62.340679 187.856735,64.801933 189.608444,65.752808 
	C206.445251,74.892204 223.177612,73.541458 239.821167,65.235954 
	C243.475311,63.412457 243.769394,59.648731 244.504837,56.288361 
	C247.088989,44.481125 254.276505,36.820332 265.535980,32.958248 
	C284.741913,26.370466 305.898865,39.623116 308.084869,59.593403 
	C308.315460,61.699986 309.143005,62.904980 310.874268,63.892464 
	C328.395203,73.886040 345.905426,74.446953 363.456329,63.975048 
	C365.232819,62.915089 367.382141,60.794781 369.100800,63.328407 
	C371.006165,66.137268 368.095947,67.496994 366.249237,68.668419 
	C350.375916,78.737259 333.732788,80.696114 316.271606,73.119621 
	C314.745087,72.457253 313.280334,71.653023 311.783020,70.922630 
	C310.299683,70.199059 308.811462,69.485558 307.105713,68.661530 
	C304.633698,71.403564 303.652161,74.800400 302.312500,77.923622 
	C301.019012,80.939140 304.005768,81.638290 305.765472,82.384079 
	C317.716217,87.449020 330.041534,89.109154 342.862854,86.173126 
	C349.271606,84.705551 355.106628,81.914528 360.961151,79.088516 
	C362.688507,78.254707 364.863678,76.752708 366.258820,79.160149 
	C367.670746,81.596581 365.131775,82.641563 363.646271,83.770691 
	C362.198578,84.871086 360.512512,85.657928 358.600769,86.757957 
M294.644745,44.861526 
	C287.026642,37.770485 277.959045,36.287880 268.187836,38.455223 
	C253.379272,41.739899 244.871124,59.771847 252.312592,72.057671 
	C257.083893,79.935005 264.887146,83.141930 273.524261,84.521278 
	C283.279327,86.079147 294.210022,80.520317 298.775024,71.982452 
	C303.657410,62.850975 302.348328,53.133865 294.644745,44.861526 
z"/>
<path fill="#000000" opacity="1.000000" stroke="none" 
	d="
M381.883484,158.737091 
	C400.511505,141.113739 404.321320,120.302666 396.616241,96.786041 
	C396.314636,95.865509 395.723541,94.938927 396.764465,93.717964 
	C399.834106,93.674416 400.485504,96.454422 401.329163,98.499504 
	C405.090149,107.616470 406.061279,117.145447 404.854340,126.903084 
	C404.634949,128.676575 403.720398,130.433701 405.331421,132.638596 
	C410.555481,131.400772 415.964417,130.119156 421.718903,128.755661 
	C419.511505,126.132294 415.626129,126.173393 414.774109,121.657471 
	C423.746521,123.300751 432.188446,126.513092 441.081696,125.138283 
	C449.784637,123.792892 458.306946,121.852661 467.589905,117.399422 
	C455.426819,117.717491 444.776703,117.168106 435.701447,109.965088 
	C448.004761,113.235184 460.288605,115.511253 474.129364,111.932625 
	C459.171265,110.388977 447.025970,105.408585 436.352264,95.011139 
	C440.313385,93.349518 441.977448,95.398056 443.699799,96.585197 
	C456.648285,105.510063 470.903900,108.206100 486.078308,104.806389 
	C491.461029,103.600418 496.447723,100.626854 501.534943,98.097984 
	C493.601501,98.463005 485.802338,101.705124 477.491211,99.436897 
	C478.681885,96.624825 480.556366,97.030006 482.122009,96.803848 
	C492.371002,95.323357 502.476471,93.442520 511.836792,88.610428 
	C514.478333,87.246780 518.267822,84.910042 520.360901,88.396278 
	C522.351501,91.711868 518.341064,93.617081 516.158386,95.270004 
	C489.301300,115.608658 459.937042,130.193756 425.998199,134.211853 
	C419.546478,134.975693 413.247162,136.596191 406.989868,138.387970 
	C403.526031,139.379898 401.252411,141.238007 399.741608,144.574142 
	C394.462128,156.232101 385.400726,164.460373 374.792114,171.137711 
	C372.799774,172.391739 370.360046,174.461624 368.095520,171.854340 
	C365.857819,169.277893 368.240326,167.254013 369.661407,165.288925 
	C377.476685,154.482086 380.744385,141.920563 383.599518,129.205444 
	C384.134644,126.822327 384.031158,126.799088 385.945770,124.594528 
	C388.504700,125.281700 387.805695,127.204369 387.642120,128.986832 
	C386.590485,140.445419 382.199615,150.882980 377.502075,161.768219 
	C379.636932,161.432709 380.416321,159.839203 381.883484,158.737091 
z"/>
<path fill="#000000" opacity="1.000000" stroke="none" 
	d="
M340.789917,181.867523 
	C333.514557,186.635803 326.243073,190.682068 318.701965,194.229706 
	C316.690948,195.175781 314.306183,197.142410 312.383911,194.714264 
	C310.457672,192.281113 312.436340,190.034058 313.922882,188.009308 
	C320.811218,178.627075 328.264038,169.694031 333.982300,159.427582 
	C342.315002,144.467239 345.605774,128.755157 343.207825,111.815994 
	C342.991302,110.286736 342.207825,108.521034 344.649445,106.950455 
	C347.483337,110.905693 347.918793,115.455299 348.213623,119.944290 
	C349.660370,141.973358 340.856689,160.474869 328.140259,177.591629 
	C326.666870,179.574860 324.842072,181.325638 323.694733,184.945740 
	C329.103363,181.703964 333.901398,180.183502 336.705505,174.329224 
	C338.960236,169.621826 344.269409,166.473114 347.661163,162.187881 
	C351.094116,157.850632 353.836487,152.966797 357.568207,148.688766 
	C357.012360,155.215851 353.442657,160.369705 350.238251,165.582062 
	C366.609467,145.242798 365.644714,122.853294 356.675018,99.436096 
	C361.315399,99.266167 361.735565,102.424232 362.723236,104.546310 
	C374.290161,129.398117 368.419647,161.292343 345.435089,178.301392 
	C343.963074,179.390701 342.530548,180.533371 340.789917,181.867523 
z"/>
<path fill="#000000" opacity="1.000000" stroke="none" 
	d="
M294.024536,182.980957 
	C301.790985,175.380615 309.030365,167.187653 318.226471,160.628967 
	C319.893036,163.949097 317.576141,165.228195 316.315948,166.658966 
	C309.278046,174.649414 301.700073,182.173386 295.709595,191.055237 
	C292.631927,195.618362 289.707428,200.217300 287.959106,205.515610 
	C286.428131,210.155060 284.153625,210.702499 280.782318,207.313354 
	C273.342316,199.833969 265.002472,193.472717 256.128479,187.872269 
	C245.531494,181.184448 238.198517,172.237823 235.059448,160.009064 
	C234.323975,157.143890 233.442261,154.286041 235.926498,149.972656 
	C238.996231,160.189468 242.043060,169.040848 249.666580,175.403397 
	C256.971100,181.499710 265.006836,186.475555 273.536255,192.711700 
	C271.682922,187.503983 268.594818,183.822098 269.022980,178.912720 
	C274.507355,183.685028 275.734955,190.898407 279.960632,197.837311 
	C279.199097,190.159515 280.817810,183.882629 283.072937,177.816238 
	C285.250671,171.958084 287.224640,165.737915 294.237213,163.314438 
	C289.247559,173.623718 283.391724,183.510239 284.665253,196.996140 
	C288.111816,191.864166 290.883484,187.737076 293.828217,183.304749 
	C294.001251,182.999512 294.024536,182.980957 294.024536,182.980957 
z"/>
<path fill="#000000" opacity="1.000000" stroke="none" 
	d="
M245.936447,192.158966 
	C230.838882,186.569382 216.518997,180.318604 204.607895,169.693268 
	C183.493530,150.858109 181.504288,126.161301 192.704468,104.517975 
	C193.870346,102.265007 195.000061,99.632675 198.286850,99.867897 
	C199.875916,101.765350 198.549118,103.157265 197.847595,104.565689 
	C185.195984,129.965454 191.384613,153.978561 214.610458,170.302383 
	C223.550491,176.585678 233.258728,181.226410 243.448441,184.992020 
	C245.009293,185.568817 246.557938,186.191223 248.069473,186.885605 
	C249.853668,187.705261 252.227493,188.367706 251.328705,191.034805 
	C250.430008,193.701706 248.256927,192.951797 245.936447,192.158966 
z"/>
<path fill="#000000" opacity="1.000000" stroke="none" 
	d="
M258.984863,94.577927 
	C259.017517,90.584305 260.870697,90.324623 263.405945,92.100197 
	C265.302734,93.428604 266.872284,95.230110 268.787506,96.525230 
	C275.311432,100.936836 282.611206,99.425499 287.915314,92.603676 
	C289.522247,90.536919 291.175232,88.209129 293.930481,90.346359 
	C296.609985,92.424828 294.308838,94.644196 293.094757,96.399773 
	C284.390137,108.986511 267.794678,108.238403 258.984863,94.577927 
z"/>
<path fill="#000000" opacity="1.000000" stroke="none" 
	d="
M233.309799,47.593582 
	C231.242401,46.236328 230.149826,44.643181 229.767059,42.562786 
	C228.908600,37.896957 231.653656,33.583721 235.731171,33.216633 
	C239.713394,32.858128 243.288330,36.134102 243.687103,40.507221 
	C244.089157,44.916180 240.726196,48.403847 236.046143,48.343876 
	C235.240356,48.333549 234.439011,47.977310 233.309799,47.593582 
z"/>
<path fill="#000000" opacity="1.000000" stroke="none" 
	d="
M317.401062,47.674492 
	C311.485840,47.767254 308.548492,45.383999 308.904755,40.834541 
	C309.191925,37.167774 310.540070,33.807499 314.660919,33.038769 
	C318.085632,32.399906 320.524567,34.315891 321.634888,37.431896 
	C323.175659,41.755760 321.938477,45.269417 317.401062,47.674492 
z"/>
<path fill="#000000" opacity="1.000000" stroke="none" 
	d="
M209.252991,141.574982 
	C209.752823,144.007217 212.070160,145.402634 211.408478,148.027649 
	C208.689560,149.225586 207.754776,146.935364 207.155243,145.336304 
	C204.569885,138.440613 202.322342,131.439713 206.248383,124.127335 
	C207.664978,129.766876 206.942795,135.746033 209.252991,141.574982 
z"/>
<path fill="#000000" opacity="1.000000" stroke="none" 
	d="
M151.953690,97.398972 
	C152.935623,96.609169 154.224136,96.392830 153.989120,97.463669 
	C152.288315,105.213264 151.712952,112.994392 152.454880,120.935997 
	C148.405487,113.306374 149.218491,105.538483 151.953690,97.398972 
z"/>
<path fill="#000000" opacity="1.000000" stroke="none" 
	d="
M293.990387,183.009521 
	C292.884705,182.904861 291.793427,182.463028 292.251770,181.216125 
	C294.522919,175.038147 299.119751,170.787033 303.723389,166.565689 
	C304.150848,166.887802 304.578278,167.209930 305.005707,167.532043 
	C301.425964,172.470581 297.846222,177.409134 294.145508,182.664307 
	C294.024536,182.980957 294.001251,182.999512 293.990387,183.009521 
z"/>
</svg>